<svg width="43" height="40" viewBox="0 0 43 40" fill="none" xmlns="http://www.w3.org/2000/svg">
<path d="M41.3311 34.667H22.6653C21.9293 34.667 21.332 34.0697 21.332 33.3337C21.332 32.5977 21.332 7.4042 21.332 6.66823C21.332 5.93227 21.9293 5.33496 22.6653 5.33496H41.3311C42.0671 5.33496 42.6644 5.93227 42.6644 6.66823V33.3337C42.6644 34.0697 42.0671 34.667 41.3311 34.667Z" fill="white"/>
<path d="M27.9984 13.3345H22.6653C21.9293 13.3345 21.332 12.7372 21.332 12.0012C21.332 11.2653 21.9293 10.668 22.6653 10.668H27.9984C28.7344 10.668 29.3317 11.2653 29.3317 12.0012C29.3317 12.7372 28.7344 13.3345 27.9984 13.3345Z" fill="#4ABCB7"/>
<path d="M27.9984 18.6675H22.6653C21.9293 18.6675 21.332 18.0702 21.332 17.3343C21.332 16.5983 21.9293 16.001 22.6653 16.001H27.9984C28.7344 16.001 29.3317 16.5983 29.3317 17.3343C29.3317 18.0702 28.7344 18.6675 27.9984 18.6675Z" fill="#4ABCB7"/>
<path d="M27.9984 24.0005H22.6653C21.9293 24.0005 21.332 23.4032 21.332 22.6673C21.332 21.9313 21.9293 21.334 22.6653 21.334H27.9984C28.7344 21.334 29.3317 21.9313 29.3317 22.6673C29.3317 23.4032 28.7344 24.0005 27.9984 24.0005Z" fill="#4ABCB7"/>
<path d="M27.9984 29.3335H22.6653C21.9293 29.3335 21.332 28.7362 21.332 28.0003C21.332 27.2643 21.9293 26.667 22.6653 26.667H27.9984C28.7344 26.667 29.3317 27.2643 29.3317 28.0003C29.3317 28.7362 28.7344 29.3335 27.9984 29.3335Z" fill="#4ABCB7"/>
<path d="M35.9979 13.3345H33.3313C32.5954 13.3345 31.998 12.7372 31.998 12.0012C31.998 11.2653 32.5954 10.668 33.3313 10.668H35.9979C36.7338 10.668 37.3311 11.2653 37.3311 12.0012C37.3311 12.7372 36.7338 13.3345 35.9979 13.3345Z" fill="#4ABCB7"/>
<path d="M35.9979 18.6675H33.3313C32.5954 18.6675 31.998 18.0702 31.998 17.3343C31.998 16.5983 32.5954 16.001 33.3313 16.001H35.9979C36.7338 16.001 37.3311 16.5983 37.3311 17.3343C37.3311 18.0702 36.7338 18.6675 35.9979 18.6675Z" fill="#4ABCB7"/>
<path d="M35.9979 24.0005H33.3313C32.5954 24.0005 31.998 23.4032 31.998 22.6673C31.998 21.9313 32.5954 21.334 33.3313 21.334H35.9979C36.7338 21.334 37.3311 21.9313 37.3311 22.6673C37.3311 23.4032 36.7338 24.0005 35.9979 24.0005Z" fill="#4ABCB7"/>
<path d="M35.9979 29.3335H33.3313C32.5954 29.3335 31.998 28.7362 31.998 28.0003C31.998 27.2643 32.5954 26.667 33.3313 26.667H35.9979C36.7338 26.667 37.3311 27.2643 37.3311 28.0003C37.3311 28.7362 36.7338 29.3335 35.9979 29.3335Z" fill="#4ABCB7"/>
<path d="M23.5163 0.30845C23.2123 0.0551276 22.8043 -0.0542009 22.4203 0.0257955L1.08795 4.02562C0.455979 4.14294 0 4.69225 0 5.33489V34.6669C0 35.3069 0.455979 35.8589 1.08795 35.9762L22.4203 39.976C22.5003 39.992 22.583 40 22.6656 40C22.975 40 23.2763 39.8933 23.5163 39.6933C23.8229 39.44 23.9989 39.0614 23.9989 38.6667V1.33507C23.9989 0.937755 23.8229 0.561772 23.5163 0.30845Z" fill="#49A5A6"/>
<path d="M18.3352 24.4566L14.1194 19.6381L18.3832 14.1557C18.8365 13.5744 18.7299 12.7371 18.1512 12.2838C17.5726 11.8305 16.7353 11.9371 16.2793 12.5158L12.3302 17.5929L9.00231 13.7904C8.51433 13.2304 7.6717 13.1798 7.12239 13.6651C6.56775 14.1504 6.51175 14.993 6.99706 15.545L10.6636 19.7368L6.9464 24.5153C6.49308 25.0966 6.59975 25.9339 7.17839 26.3872C7.42371 26.5765 7.71436 26.6672 7.99968 26.6672C8.397 26.6672 8.78898 26.4912 9.05297 26.1525L12.4528 21.7794L16.33 26.2085C16.594 26.5125 16.9619 26.6672 17.3326 26.6672C17.6446 26.6672 17.9566 26.5578 18.2099 26.3365C18.7645 25.8512 18.8205 25.0086 18.3352 24.4566Z" fill="white"/>
</svg>
