<svg width="30" height="40" viewBox="0 0 30 40" fill="none" xmlns="http://www.w3.org/2000/svg">
<path d="M3.49829 38.071C3.54343 39.1491 4.43062 40 5.50954 40H24.3021C25.381 40 26.2682 39.1491 26.3133 38.071L27.6554 9.74023H2.15625L3.49829 38.071ZM19.1569 16.7771C19.1569 16.3257 19.5229 15.9595 19.9746 15.9595H21.2823C21.7337 15.9595 22.1 16.3256 22.1 16.7771V32.9631C22.1 33.4147 21.734 33.7807 21.2823 33.7807H19.9746C19.5231 33.7807 19.1569 33.4149 19.1569 32.9631V16.7771ZM13.4344 16.7771C13.4344 16.3257 13.8004 15.9595 14.2519 15.9595H15.5597C16.011 15.9595 16.3773 16.3256 16.3773 16.7771V32.9631C16.3773 33.4147 16.0113 33.7807 15.5597 33.7807H14.2519C13.8005 33.7807 13.4344 33.4149 13.4344 32.9631V16.7771ZM7.71163 16.7771C7.71163 16.3257 8.07767 15.9595 8.5292 15.9595H9.83706C10.2885 15.9595 10.6546 16.3256 10.6546 16.7771V32.9631C10.6546 33.4147 10.2886 33.7807 9.83706 33.7807H8.5292C8.07777 33.7807 7.71163 33.4149 7.71163 32.9631V16.7771Z" fill="#FF4970"/>
<path d="M28.5496 2.0606H19.88V0.42156C19.88 0.188796 19.6913 0 19.4584 0H10.3544C10.1216 0 9.93295 0.188796 9.93295 0.42156V2.0605H1.26321C0.565507 2.0605 0 2.62611 0 3.32381V7.29235H29.8128V3.32391C29.8128 2.6262 29.2473 2.0606 28.5496 2.0606Z" fill="#FF4970"/>
</svg>
